<?xml version="1.0" encoding="iso-8859-1"?>
<!-- Generator: Adobe Illustrator 18.0.0, SVG Export Plug-In . SVG Version: 6.00 Build 0)  -->
<!DOCTYPE svg PUBLIC "-//W3C//DTD SVG 1.1//EN" "http://www.w3.org/Graphics/SVG/1.1/DTD/svg11.dtd">
<svg version="1.1" id="Capa_1" xmlns="http://www.w3.org/2000/svg" xmlns:xlink="http://www.w3.org/1999/xlink" x="0px" y="0px"
	 viewBox="0 0 246.773 246.773" style="enable-background:new 0 0 246.773 246.773;" xml:space="preserve">
<path d="M244.273,56.271H2.5c-1.381,0-2.5,1.119-2.5,2.5v129.23c0,1.381,1.119,2.5,2.5,2.5h241.773c1.381,0,2.5-1.119,2.5-2.5
	V58.771C246.773,57.391,245.654,56.271,244.273,56.271z M15.762,180.637c-2.071,0-3.75-1.679-3.75-3.75
	c0-2.071,1.679-3.75,3.75-3.75c2.071,0,3.75,1.679,3.75,3.75C19.512,178.958,17.833,180.637,15.762,180.637z M15.762,73.637
	c-2.071,0-3.75-1.679-3.75-3.75c0-2.071,1.679-3.75,3.75-3.75c2.071,0,3.75,1.679,3.75,3.75
	C19.512,71.958,17.833,73.637,15.762,73.637z M104.387,162.387H26.386v-78h78.001V162.387z M128.808,124.567l0.659-18.827h-6.08
	l3.516-21.283h12.893l-3.516,16.522h4.981L128.808,124.567z M198.721,166.137h-13.272v-15.382h13.272V166.137z M163.012,117.762
	l-8.875-6.792V91.804l8.875-6.792h37.5l8.875,6.792v19.166l-8.875,6.792H163.012z M221.054,166.137h-13.271v-15.382h13.271V166.137z
	 M231.012,180.637c-2.071,0-3.75-1.679-3.75-3.75c0-2.071,1.679-3.75,3.75-3.75c2.071,0,3.75,1.679,3.75,3.75
	C234.762,178.958,233.083,180.637,231.012,180.637z M231.012,73.637c-2.071,0-3.75-1.679-3.75-3.75c0-2.071,1.679-3.75,3.75-3.75
	c2.071,0,3.75,1.679,3.75,3.75C234.762,71.958,233.083,73.637,231.012,73.637z M65.387,158.887c19.608,0,35.499-15.893,35.499-35.5
	s-15.891-35.5-35.499-35.5c-19.608,0-35.499,15.893-35.499,35.5S45.778,158.887,65.387,158.887z M51.235,120.648
	c-0.859-0.17-1.722-0.336-2.569-0.502c-0.845-0.139-1.678-0.277-2.482-0.41c-0.805-0.131-1.577-0.264-2.306-0.348
	c-0.729-0.102-1.416-0.197-2.051-0.281c-0.623-0.064-1.194-0.125-1.699-0.184c-0.119-0.007-0.234-0.02-0.347-0.033
	c1.127-6.469,4.643-12.114,9.609-15.996c0.056,0.031,0.108,0.06,0.168,0.092c0.739,0.396,1.498,0.836,2.276,1.291
	c0.778,0.454,1.583,0.924,2.401,1.4c0.797,0.494,1.608,0.998,2.418,1.499c0.809,0.505,1.621,0.995,2.401,1.511
	c0.553,0.365,1.097,0.729,1.634,1.086c-0.002-0.007-0.003-0.01-0.003-0.012c-0.286-0.832-0.573-1.66-0.852-2.479
	c-0.302-0.801-0.599-1.584-0.887-2.354c-0.287-0.762-0.561-1.496-0.849-2.174c-0.278-0.682-0.541-1.32-0.785-1.912
	c-0.254-0.572-0.487-1.094-0.692-1.563c-0.052-0.111-0.099-0.223-0.147-0.326c2.781-1.014,5.783-1.568,8.914-1.568
	c3.45,0,6.738,0.674,9.749,1.895c0.001,0.07,0.005,0.127,0.005,0.193c0.029,0.842,0.025,1.717,0.019,2.621
	c-0.003,0.902-0.006,1.832-0.012,2.779c-0.029,0.938-0.06,1.893-0.09,2.848c-0.035,0.951-0.051,1.898-0.107,2.832
	c-0.042,0.66-0.083,1.313-0.122,1.959c0.002-0.008,0.004-0.008,0.006-0.008c0.578-0.666,1.152-1.33,1.719-1.977
	c0.542-0.665,1.077-1.316,1.595-1.947c0.518-0.629,1.017-1.236,1.459-1.824c0.45-0.58,0.871-1.131,1.263-1.638
	c0.368-0.507,0.706-0.966,1.006-1.38c0.069-0.094,0.139-0.193,0.206-0.279c4.817,4.035,8.144,9.793,9.049,16.316
	c-0.053,0.039-0.107,0.068-0.162,0.102c-0.712,0.447-1.473,0.881-2.257,1.329c-0.782,0.446-1.591,0.908-2.412,1.375
	c-0.829,0.444-1.669,0.896-2.51,1.349c-0.845,0.443-1.673,0.904-2.508,1.32c-0.595,0.295-1.181,0.586-1.757,0.873
	c0.005,0,0.007,0,0.011,0c0.862,0.17,1.722,0.339,2.571,0.506c0.844,0.139,1.677,0.273,2.482,0.408
	c0.803,0.133,1.577,0.264,2.306,0.346c0.727,0.105,1.415,0.197,2.051,0.282c0.623,0.067,1.192,0.124,1.697,0.183
	c0.118,0.01,0.236,0.021,0.348,0.033c-1.128,6.469-4.642,12.114-9.61,15.999c-0.055-0.034-0.108-0.06-0.166-0.095
	c-0.741-0.393-1.497-0.836-2.276-1.291c-0.78-0.452-1.583-0.924-2.402-1.396c-0.797-0.494-1.609-1.002-2.42-1.503
	c-0.808-0.505-1.621-0.995-2.4-1.507c-0.554-0.369-1.098-0.73-1.633-1.088c0.001,0.005,0.001,0.008,0.003,0.01
	c0.286,0.832,0.571,1.664,0.854,2.479c0.302,0.801,0.598,1.592,0.887,2.357c0.284,0.758,0.56,1.492,0.848,2.17
	c0.277,0.682,0.542,1.32,0.784,1.912c0.254,0.573,0.488,1.098,0.693,1.563c0.052,0.111,0.101,0.223,0.146,0.326
	c-2.781,1.016-5.781,1.568-8.914,1.568c-3.448,0-6.738-0.674-9.75-1.895c0-0.066-0.003-0.127-0.003-0.193
	c-0.03-0.842-0.027-1.715-0.02-2.621c0.003-0.9,0.007-1.832,0.012-2.779c0.03-0.936,0.06-1.893,0.091-2.844
	c0.038-0.955,0.052-1.9,0.106-2.834c0.043-0.662,0.084-1.313,0.122-1.957c-0.003,0.004-0.006,0.006-0.007,0.006
	c-0.575,0.665-1.152,1.328-1.718,1.979c-0.543,0.662-1.078,1.313-1.596,1.948c-0.517,0.624-1.017,1.231-1.457,1.819
	c-0.45,0.582-0.873,1.131-1.266,1.638c-0.367,0.507-0.705,0.966-1.005,1.38c-0.069,0.094-0.138,0.193-0.206,0.283
	c-4.817-4.039-8.145-9.793-9.05-16.32c0.054-0.039,0.109-0.068,0.163-0.102c0.711-0.445,1.472-0.881,2.259-1.328
	c0.782-0.447,1.59-0.906,2.412-1.373c0.828-0.447,1.669-0.898,2.509-1.35c0.843-0.445,1.673-0.902,2.508-1.322
	c0.594-0.295,1.178-0.586,1.754-0.873C51.242,120.648,51.239,120.648,51.235,120.648z M177.012,91.637h9.5v3.75h-9.5V91.637z
	 M164.574,104.512h9.5v3.75h-9.5V104.512z M189.449,104.512h9.5v3.75h-9.5V104.512z M58.586,123.387c0-3.754,3.044-6.801,6.8-6.801
	c3.756,0,6.8,3.047,6.8,6.801s-3.044,6.801-6.8,6.801C61.631,130.188,58.586,127.141,58.586,123.387z"/>
<g>
</g>
<g>
</g>
<g>
</g>
<g>
</g>
<g>
</g>
<g>
</g>
<g>
</g>
<g>
</g>
<g>
</g>
<g>
</g>
<g>
</g>
<g>
</g>
<g>
</g>
<g>
</g>
<g>
</g>
</svg>
